<svg width="99" height="99" viewBox="0 0 99 99" fill="none" xmlns="http://www.w3.org/2000/svg">
<g clip-path="url(#clip0_192_640)">
<path d="M92.8125 61.875C92.8188 58.7771 92.0496 55.7268 90.5751 53.0023C89.1006 50.2778 86.9676 47.9657 84.3706 46.2766C81.7736 44.5876 78.7952 43.5754 75.7069 43.3322C72.6185 43.0891 69.5184 43.6228 66.6891 44.8846C63.8598 46.1465 61.3913 48.0964 59.5086 50.5566C57.626 53.0168 56.3889 55.9091 55.9104 58.9699C55.4318 62.0306 55.7269 65.1625 56.7687 68.08C57.8105 70.9975 59.5659 73.6078 61.875 75.6731V99L74.25 93.1404L86.625 99V75.6731C88.57 73.9387 90.1266 71.8129 91.1929 69.4351C92.2592 67.0573 92.8111 64.481 92.8125 61.875ZM80.4375 89.2237L74.25 86.2939L68.0625 89.2237V79.3547C72.0611 80.7987 76.4389 80.7987 80.4375 79.3547V89.2237ZM74.25 74.25C71.8025 74.25 69.4099 73.5242 67.3748 72.1644C65.3398 70.8046 63.7536 68.8719 62.817 66.6107C61.8804 64.3494 61.6353 61.8612 62.1128 59.4607C62.5903 57.0602 63.7689 54.8552 65.4996 53.1245C67.2302 51.3939 69.4352 50.2153 71.8358 49.7378C74.2363 49.2603 76.7245 49.5053 78.9857 50.442C81.2469 51.3786 83.1797 52.9647 84.5394 54.9998C85.8992 57.0349 86.625 59.4274 86.625 61.875C86.6209 65.1558 85.3158 68.301 82.9959 70.6209C80.676 72.9408 77.5308 74.2459 74.25 74.25Z" fill="#0C6960"/>
<path d="M77.3438 15.4688H68.0625V12.375C68.0576 10.7355 67.4041 9.16451 66.2448 8.00519C65.0855 6.84586 63.5145 6.1924 61.875 6.1875H37.125C35.4855 6.1924 33.9145 6.84586 32.7552 8.00519C31.5959 9.16451 30.9424 10.7355 30.9375 12.375V15.4688H21.6562C20.0167 15.4736 18.4458 16.1271 17.2864 17.2864C16.1271 18.4458 15.4736 20.0167 15.4688 21.6562V86.625C15.4736 88.2645 16.1271 89.8355 17.2864 90.9948C18.4458 92.1541 20.0167 92.8076 21.6562 92.8125H49.5V86.625H21.6562V21.6562H30.9375V30.9375H68.0625V21.6562H77.3438V37.125H83.5312V21.6562C83.5264 20.0167 82.8729 18.4458 81.7136 17.2864C80.5542 16.1271 78.9833 15.4736 77.3438 15.4688ZM61.875 24.75H37.125V12.375H61.875V24.75Z" fill="#0C6960"/>
</g>
<defs>
<clipPath id="clip0_192_640">
<rect width="99" height="99" fill="white"/>
</clipPath>
</defs>
</svg>
