<svg width="93" height="91" viewBox="0 0 93 91" fill="none" xmlns="http://www.w3.org/2000/svg">
<g clip-path="url(#clip0_83_889)">
<path d="M59.0402 20.4655H33.9807C33.4097 20.4662 32.8622 20.694 32.4584 21.0987C32.0546 21.5035 31.8274 22.0523 31.8267 22.6248V78.4549L31.5396 78.5427L25.3921 80.4299C25.1007 80.5189 24.786 80.4884 24.5171 80.3451C24.2481 80.2018 24.0469 79.9574 23.9575 79.6655L5.67159 19.7904C5.5826 19.4984 5.61293 19.1829 5.75591 18.9132C5.89889 18.6435 6.14283 18.4418 6.43411 18.3524L15.9074 15.4447L43.3707 7.01795L52.8439 4.11021C52.9881 4.06573 53.1396 4.05019 53.2897 4.06447C53.4399 4.07875 53.5858 4.12258 53.719 4.19344C53.8523 4.2643 53.9703 4.36081 54.0663 4.47744C54.1623 4.59407 54.2344 4.72853 54.2785 4.87313L58.9526 20.1777L59.0402 20.4655Z" fill="#F2F2F2"/>
<path d="M64.5085 20.1778L58.8751 1.73229C58.7814 1.42496 58.6282 1.13914 58.4242 0.891191C58.2202 0.643238 57.9696 0.438002 57.6864 0.287211C57.4033 0.13642 57.0933 0.043027 56.7742 0.0123735C56.4551 -0.01828 56.133 0.0144063 55.8265 0.108561L42.5077 4.19524L15.0458 12.6234L1.72701 16.7115C1.10828 16.9019 0.59022 17.3307 0.286528 17.9037C-0.0171638 18.4766 -0.0816723 19.1469 0.107165 19.7675L19.3609 82.8065C19.5143 83.3075 19.8239 83.7459 20.2441 84.0576C20.6644 84.3693 21.1732 84.5377 21.6959 84.5382C21.9378 84.5383 22.1784 84.502 22.4096 84.4303L31.5396 81.6291L31.8268 81.5398V81.2389L31.5396 81.3268L22.3249 84.1553C21.7787 84.3222 21.1888 84.2651 20.6846 83.9966C20.1804 83.7281 19.803 83.2701 19.6352 82.723L0.382934 19.6826C0.299803 19.4115 0.27083 19.1267 0.297672 18.8444C0.324515 18.5621 0.406643 18.2878 0.539361 18.0374C0.672078 17.7869 0.852776 17.5652 1.0711 17.3849C1.28943 17.2045 1.5411 17.0691 1.8117 16.9864L15.1305 12.8983L42.5925 4.47162L55.9113 0.383504C56.1165 0.320714 56.3299 0.288699 56.5445 0.288498C57.005 0.289535 57.4532 0.43837 57.8232 0.713205C58.1932 0.98804 58.4658 1.37443 58.6009 1.81578L64.2084 20.1778L64.2974 20.4657H64.5961L64.5085 20.1778Z" fill="#3F3D56"/>
<path d="M17.6168 18.3995C17.3401 18.3994 17.0706 18.3102 16.8481 18.1453C16.6255 17.9804 16.4616 17.7483 16.3803 17.4831L14.5307 11.4269C14.4809 11.2643 14.4637 11.0934 14.4799 10.924C14.4961 10.7546 14.5454 10.5901 14.625 10.4399C14.7047 10.2896 14.813 10.1566 14.944 10.0483C15.0749 9.94006 15.2258 9.85872 15.3881 9.80893L40.6528 2.05537C40.9805 1.95511 41.3346 1.9893 41.6372 2.15044C41.9398 2.31157 42.1663 2.58648 42.267 2.91483L44.1166 8.97104C44.2165 9.29958 44.1824 9.65446 44.0216 9.9578C43.8609 10.2611 43.5867 10.4882 43.2592 10.5891L17.9944 18.3427C17.8721 18.3803 17.7448 18.3995 17.6168 18.3995Z" fill="#0097E7"/>
<path d="M27.3058 6.47117C28.892 6.47117 30.1778 5.18221 30.1778 3.59221C30.1778 2.00221 28.892 0.713257 27.3058 0.713257C25.7197 0.713257 24.4338 2.00221 24.4338 3.59221C24.4338 5.18221 25.7197 6.47117 27.3058 6.47117Z" fill="#0097E7"/>
<path d="M27.3059 5.41525C28.3103 5.41525 29.1246 4.59905 29.1246 3.59221C29.1246 2.58537 28.3103 1.76917 27.3059 1.76917C26.3015 1.76917 25.4873 2.58537 25.4873 3.59221C25.4873 4.59905 26.3015 5.41525 27.3059 5.41525Z" fill="white"/>
<path d="M86.5381 83.8026H38.0016C37.678 83.8022 37.3677 83.6732 37.1389 83.4438C36.9101 83.2144 36.7814 82.9034 36.781 82.579V24.2802C36.7814 23.9558 36.9101 23.6448 37.1389 23.4154C37.3677 23.186 37.678 23.057 38.0016 23.0566H86.5381C86.8617 23.057 87.172 23.186 87.4008 23.4154C87.6296 23.6448 87.7583 23.9558 87.7587 24.2802V82.579C87.7583 82.9034 87.6296 83.2144 87.4008 83.4438C87.1719 83.6732 86.8617 83.8022 86.5381 83.8026Z" fill="#E6E6E6"/>
<path d="M64.2084 20.1777H33.9807C33.3336 20.1787 32.7132 20.4368 32.2556 20.8955C31.798 21.3542 31.5405 21.9761 31.5396 22.6248V81.3267L31.8267 81.2389V22.6248C31.8274 22.0524 32.0546 21.5036 32.4584 21.0988C32.8622 20.694 33.4097 20.4663 33.9807 20.4656H64.2974L64.2084 20.1777ZM90.5588 20.1777H33.9807C33.3336 20.1787 32.7132 20.4368 32.2556 20.8955C31.798 21.3542 31.5405 21.9761 31.5396 22.6248V88.5529C31.5405 89.2016 31.798 89.8235 32.2556 90.2823C32.7132 90.741 33.3336 90.9991 33.9807 91H90.5588C91.206 90.9991 91.8264 90.741 92.284 90.2823C92.7416 89.8235 92.9991 89.2016 93 88.5529V22.6248C92.9991 21.9761 92.7416 21.3542 92.284 20.8955C91.8264 20.4368 91.206 20.1787 90.5588 20.1777ZM92.7128 88.5529C92.7121 89.1254 92.4849 89.6742 92.0811 90.0789C91.6773 90.4837 91.1299 90.7114 90.5588 90.7121H33.9807C33.4097 90.7114 32.8622 90.4837 32.4584 90.0789C32.0546 89.6742 31.8274 89.1254 31.8267 88.5529V22.6248C31.8274 22.0524 32.0546 21.5036 32.4584 21.0988C32.8622 20.694 33.4097 20.4663 33.9807 20.4656H90.5588C91.1299 20.4663 91.6773 20.694 92.0811 21.0988C92.4849 21.5036 92.7121 22.0524 92.7128 22.6248V88.5529Z" fill="#3F3D56"/>
<path d="M75.481 26.5114H49.0587C48.7161 26.511 48.3876 26.3744 48.1453 26.1316C47.903 25.8887 47.7667 25.5594 47.7664 25.2159V18.8822C47.7667 18.5387 47.903 18.2094 48.1453 17.9665C48.3876 17.7237 48.7161 17.5871 49.0587 17.5867H75.481C75.8236 17.5871 76.1521 17.7237 76.3944 17.9665C76.6367 18.2094 76.773 18.5387 76.7734 18.8822V25.2159C76.773 25.5594 76.6367 25.8887 76.3944 26.1316C76.1521 26.3744 75.8236 26.511 75.481 26.5114Z" fill="#0097E7"/>
<path d="M62.2698 18.0185C63.856 18.0185 65.1418 16.7296 65.1418 15.1396C65.1418 13.5496 63.856 12.2606 62.2698 12.2606C60.6837 12.2606 59.3978 13.5496 59.3978 15.1396C59.3978 16.7296 60.6837 18.0185 62.2698 18.0185Z" fill="#0097E7"/>
<path d="M62.2698 16.8931C63.2359 16.8931 64.0191 16.108 64.0191 15.1395C64.0191 14.1711 63.2359 13.386 62.2698 13.386C61.3037 13.386 60.5205 14.1711 60.5205 15.1395C60.5205 16.108 61.3037 16.8931 62.2698 16.8931Z" fill="white"/>
</g>
<defs>
<clipPath id="clip0_83_889">
<rect width="93" height="91" fill="white"/>
</clipPath>
</defs>
</svg>
