<svg width="109" height="104" viewBox="0 0 109 104" fill="none" xmlns="http://www.w3.org/2000/svg">
<path d="M88.5625 84.5H20.4375V19.5H54.5V13H20.4375C18.6313 13.0017 16.8995 13.6871 15.6223 14.9057C14.3451 16.1243 13.6268 17.7766 13.625 19.5V84.5C13.6268 86.2234 14.3451 87.8757 15.6223 89.0943C16.8995 90.3129 18.6313 90.9983 20.4375 91H88.5625C90.3687 90.9983 92.1005 90.3129 93.3777 89.0943C94.6549 87.8757 95.3732 86.2234 95.375 84.5V52H88.5625V84.5Z" fill="#1975A5"/>
<path d="M88.5625 84.5H20.4375V19.5H54.5V13H20.4375C18.6313 13.0017 16.8995 13.6871 15.6223 14.9057C14.3451 16.1243 13.6268 17.7766 13.625 19.5V84.5C13.6268 86.2234 14.3451 87.8757 15.6223 89.0943C16.8995 90.3129 18.6313 90.9983 20.4375 91H88.5625C90.3687 90.9983 92.1005 90.3129 93.3777 89.0943C94.6549 87.8757 95.3732 86.2234 95.375 84.5V52H88.5625V84.5Z" fill="#1975A5"/>
<path d="M88.5625 19.5V6.5H81.75V19.5H68.125V26H81.75V39H88.5625V26H102.188V19.5H88.5625Z" fill="#1975A5"/>
</svg>
